<svg width="100" height="100" viewBox="0 0 100 100" fill="none" xmlns="http://www.w3.org/2000/svg">
<circle cx="50" cy="50" r="50" fill="#858DD8"/>
<path d="M49.696 37.816L35.296 36.408L34.72 54.328L34.912 75.128L31.328 76.024C30.2187 75.4693 29.088 74.7227 27.936 73.784C26.784 72.8027 25.8453 71.6293 25.12 70.264L28.128 53.496L27.616 36.728L17.504 38.264C16.4373 37.5813 15.52 36.8773 14.752 36.152C13.984 35.4267 13.1733 34.5093 12.32 33.4L13.536 29.688L31.968 30.2L45.728 29.176C47.0933 30.1147 48.1813 30.9893 48.992 31.8C49.8027 32.568 50.4853 33.3573 51.04 34.168L49.696 37.816ZM79.983 51.768C82.031 52.9627 83.5243 54.2853 84.463 55.736C85.4017 57.144 85.935 58.8507 86.063 60.856C86.191 62.8187 86.0417 65.2293 85.615 68.088C85.231 68.856 84.5697 69.688 83.631 70.584C82.735 71.48 81.711 72.3333 80.559 73.144C79.407 73.912 78.2977 74.552 77.231 75.064C76.1643 75.6187 75.2897 75.9387 74.607 76.024L60.719 74.104L57.519 76.024C55.727 75.384 54.3403 74.424 53.359 73.144L55.855 53.496L55.087 30.2L56.943 28.92C57.5403 29.0053 58.415 29.3467 59.567 29.944C60.7617 30.4987 61.743 31.0747 62.511 31.672C64.175 30.8187 65.9243 30.1787 67.759 29.752C69.6363 29.2827 71.4497 29.0053 73.199 28.92C74.9483 28.8347 76.5057 28.9413 77.871 29.24C79.023 29.88 80.0897 30.6907 81.071 31.672C82.095 32.6533 82.991 33.6347 83.759 34.616C84.527 35.5973 85.103 36.4507 85.487 37.176L84.975 46.776L79.983 51.768ZM77.231 36.344C75.2683 35.9173 72.9643 35.832 70.319 36.088C67.6737 36.3013 65.2203 37.0053 62.959 38.2L62.639 48.888L77.231 46.584C77.487 44.5787 77.615 42.7013 77.615 40.952C77.6577 39.2027 77.5297 37.6667 77.231 36.344ZM62.447 68.664L77.743 67.256C78.4683 64.2693 78.6177 61.752 78.191 59.704C77.807 57.6133 76.7403 55.6507 74.991 53.816L62.447 54.712V68.664Z" fill="white"/>
<path d="M49.696 37.816L49.5987 38.8113L50.3673 38.8864L50.6343 38.1617L49.696 37.816ZM35.296 36.408L35.3933 35.4127L34.3308 35.3089L34.2965 36.3759L35.296 36.408ZM34.72 54.328L33.7205 54.2959L33.7199 54.3165L33.72 54.3372L34.72 54.328ZM34.912 75.128L35.1545 76.0981L35.9192 75.907L35.912 75.1188L34.912 75.128ZM31.328 76.024L30.8808 76.9184L31.2117 77.0839L31.5705 76.9941L31.328 76.024ZM27.936 73.784L27.2875 74.5452L27.2959 74.5523L27.3043 74.5592L27.936 73.784ZM25.12 70.264L24.1357 70.0874L24.0747 70.4278L24.2369 70.7332L25.12 70.264ZM28.128 53.496L29.1123 53.6726L29.1307 53.5698L29.1275 53.4655L28.128 53.496ZM27.616 36.728L28.6155 36.6975L28.5811 35.5699L27.4658 35.7393L27.616 36.728ZM17.504 38.264L16.9649 39.1063L17.282 39.3092L17.6542 39.2527L17.504 38.264ZM14.752 36.152L15.4386 35.425L15.4386 35.425L14.752 36.152ZM12.32 33.4L11.3697 33.0887L11.2052 33.5909L11.5274 34.0097L12.32 33.4ZM13.536 29.688L13.5638 28.6884L12.818 28.6677L12.5857 29.3767L13.536 29.688ZM31.968 30.2L31.9402 31.1996L31.9913 31.201L32.0422 31.1972L31.968 30.2ZM45.728 29.176L46.2945 28.352L46.0046 28.1526L45.6538 28.1788L45.728 29.176ZM48.992 31.8L48.2849 32.5071L48.2944 32.5167L48.3043 32.526L48.992 31.8ZM51.04 34.168L51.9783 34.5137L52.1568 34.0293L51.8653 33.6033L51.04 34.168ZM49.7933 36.8207L35.3933 35.4127L35.1987 37.4033L49.5987 38.8113L49.7933 36.8207ZM34.2965 36.3759L33.7205 54.2959L35.7195 54.3601L36.2955 36.4401L34.2965 36.3759ZM33.72 54.3372L33.912 75.1372L35.912 75.1188L35.72 54.3188L33.72 54.3372ZM34.6695 74.1579L31.0855 75.0539L31.5705 76.9941L35.1545 76.0981L34.6695 74.1579ZM31.7752 75.1296C30.743 74.6134 29.6736 73.9099 28.5677 73.0088L27.3043 74.5592C28.5024 75.5355 29.6944 76.3252 30.8808 76.9184L31.7752 75.1296ZM28.5845 73.0228C27.5305 72.1249 26.6706 71.0514 26.0031 69.7948L24.2369 70.7332C25.02 72.2073 26.0375 73.4804 27.2875 74.5452L28.5845 73.0228ZM26.1043 70.4406L29.1123 53.6726L27.1437 53.3194L24.1357 70.0874L26.1043 70.4406ZM29.1275 53.4655L28.6155 36.6975L26.6165 36.7585L27.1285 53.5265L29.1275 53.4655ZM27.4658 35.7393L17.3538 37.2753L17.6542 39.2527L27.7662 37.7167L27.4658 35.7393ZM18.0431 37.4217C17.019 36.7664 16.1532 36.0999 15.4386 35.425L14.0654 36.879C14.8868 37.6548 15.8556 38.3963 16.9649 39.1063L18.0431 37.4217ZM15.4386 35.425C14.719 34.7454 13.9434 33.8704 13.1126 32.7903L11.5274 34.0097C12.4032 35.1483 13.249 36.108 14.0654 36.879L15.4386 35.425ZM13.2703 33.7113L14.4863 29.9993L12.5857 29.3767L11.3697 33.0887L13.2703 33.7113ZM13.5082 30.6876L31.9402 31.1996L31.9958 29.2004L13.5638 28.6884L13.5082 30.6876ZM32.0422 31.1972L45.8022 30.1732L45.6538 28.1788L31.8938 29.2028L32.0422 31.1972ZM45.1615 30C46.4966 30.9179 47.5318 31.754 48.2849 32.5071L49.6991 31.0929C48.8309 30.2247 47.6901 29.3114 46.2945 28.352L45.1615 30ZM48.3043 32.526C49.0703 33.2517 49.705 33.9878 50.2147 34.7327L51.8653 33.6033C51.2656 32.7269 50.535 31.8843 49.6797 31.074L48.3043 32.526ZM50.1017 33.8223L48.7577 37.4703L50.6343 38.1617L51.9783 34.5137L50.1017 33.8223ZM79.983 51.768L79.2759 51.0609L78.3586 51.9782L79.4791 52.6318L79.983 51.768ZM84.463 55.736L83.6234 56.2793L83.631 56.2907L84.463 55.736ZM86.063 60.856L85.065 60.9197L85.0651 60.9211L86.063 60.856ZM85.615 68.088L86.5094 68.5352L86.5806 68.3929L86.604 68.2356L85.615 68.088ZM83.631 70.584L82.9405 69.8606L82.9321 69.8687L82.9239 69.8769L83.631 70.584ZM80.559 73.144L81.1137 73.9761L81.1242 73.9691L81.1345 73.9618L80.559 73.144ZM77.231 75.064L76.7983 74.1625L76.7838 74.1694L76.7696 74.1768L77.231 75.064ZM74.607 76.024L74.4701 77.0146L74.6004 77.0326L74.731 77.0163L74.607 76.024ZM60.719 74.104L60.8559 73.1134L60.5068 73.0651L60.2045 73.2465L60.719 74.104ZM57.519 76.024L57.1827 76.9657L57.628 77.1248L58.0335 76.8815L57.519 76.024ZM53.359 73.144L52.367 73.018L52.3151 73.426L52.5654 73.7524L53.359 73.144ZM55.855 53.496L56.847 53.622L56.8571 53.5428L56.8545 53.463L55.855 53.496ZM55.087 30.2L54.5193 29.3768L54.0695 29.6869L54.0875 30.2329L55.087 30.2ZM56.943 28.92L57.0844 27.93L56.6972 27.8747L56.3753 28.0968L56.943 28.92ZM59.567 29.944L59.1067 30.8318L59.1261 30.8418L59.1459 30.851L59.567 29.944ZM62.511 31.672L61.8971 32.4613L62.4002 32.8527L62.9673 32.5618L62.511 31.672ZM67.759 29.752L67.9855 30.726L67.9935 30.7241L68.0015 30.7221L67.759 29.752ZM73.199 28.92L73.2477 29.9188L73.2477 29.9188L73.199 28.92ZM77.871 29.24L78.3566 28.3658L78.2282 28.2945L78.0847 28.2631L77.871 29.24ZM81.071 31.672L80.3639 32.3791L80.3714 32.3866L80.3791 32.394L81.071 31.672ZM83.759 34.616L84.5465 33.9997L83.759 34.616ZM85.487 37.176L86.4856 37.2293L86.5003 36.9528L86.3708 36.7081L85.487 37.176ZM84.975 46.776L85.6821 47.4831L85.9532 47.212L85.9736 46.8293L84.975 46.776ZM77.231 36.344L78.2064 36.1237L78.0661 35.5022L77.4434 35.3668L77.231 36.344ZM70.319 36.088L70.3994 37.0848L70.4074 37.0841L70.4153 37.0833L70.319 36.088ZM62.959 38.2L62.4919 37.3158L61.9769 37.5879L61.9594 38.1701L62.959 38.2ZM62.639 48.888L61.6395 48.8581L61.6033 50.0639L62.795 49.8758L62.639 48.888ZM77.231 46.584L77.387 47.5718L78.128 47.4548L78.223 46.7106L77.231 46.584ZM77.615 40.952L76.6153 40.9276L76.615 40.9398V40.952H77.615ZM62.447 68.664H61.447V69.7603L62.5387 69.6598L62.447 68.664ZM77.743 67.256L77.8347 68.2518L78.5461 68.1863L78.7148 67.492L77.743 67.256ZM78.191 59.704L77.2075 59.8847L77.2096 59.8963L77.212 59.908L78.191 59.704ZM74.991 53.816L75.7147 53.1259L75.3896 52.785L74.9198 52.8185L74.991 53.816ZM62.447 54.712L62.3758 53.7145L61.447 53.7809V54.712H62.447ZM79.4791 52.6318C81.4394 53.7753 82.7956 55 83.6234 56.2792L85.3026 55.1927C84.253 53.5707 82.6226 52.1501 80.4869 50.9042L79.4791 52.6318ZM83.631 56.2907C84.4553 57.5272 84.9461 59.0567 85.065 60.9197L87.061 60.7923C86.9239 58.6446 86.3481 56.7608 85.2951 55.1813L83.631 56.2907ZM85.0651 60.9211C85.1869 62.7881 85.0465 65.1225 84.626 67.9404L86.604 68.2356C87.0368 65.3361 87.1951 62.8492 87.0609 60.7909L85.0651 60.9211ZM84.7206 67.6408C84.4074 68.2671 83.834 69.0077 82.9405 69.8606L84.3215 71.3074C85.3053 70.3683 86.0546 69.4449 86.5094 68.5352L84.7206 67.6408ZM82.9239 69.8769C82.0727 70.7281 81.0937 71.545 79.9835 72.3262L81.1345 73.9618C82.3283 73.1217 83.3973 72.2319 84.3381 71.2911L82.9239 69.8769ZM80.0043 72.312C78.8849 73.0582 77.8163 73.6738 76.7983 74.1625L77.6637 75.9655C78.779 75.4302 79.9291 74.7658 81.1137 73.9761L80.0043 72.312ZM76.7696 74.1768C75.7417 74.7113 74.9912 74.9682 74.483 75.0317L74.731 77.0163C75.5881 76.9091 76.587 76.526 77.6924 75.9512L76.7696 74.1768ZM74.7439 75.0334L60.8559 73.1134L60.5821 75.0946L74.4701 77.0146L74.7439 75.0334ZM60.2045 73.2465L57.0045 75.1665L58.0335 76.8815L61.2335 74.9615L60.2045 73.2465ZM57.8553 75.0823C56.2115 74.4952 54.9971 73.637 54.1526 72.5356L52.5654 73.7524C53.6836 75.211 55.2425 76.2728 57.1827 76.9657L57.8553 75.0823ZM54.351 73.27L56.847 53.622L54.863 53.37L52.367 73.018L54.351 73.27ZM56.8545 53.463L56.0865 30.167L54.0875 30.2329L54.8555 53.5289L56.8545 53.463ZM55.6547 31.0232L57.5107 29.7432L56.3753 28.0968L54.5193 29.3768L55.6547 31.0232ZM56.8016 29.9099C57.2199 29.9697 57.9666 30.2406 59.1067 30.8318L60.0273 29.0562C58.8634 28.4527 57.8608 28.041 57.0844 27.93L56.8016 29.9099ZM59.1459 30.851C60.2944 31.3842 61.2054 31.9234 61.8971 32.4613L63.1249 30.8826C62.2806 30.2259 61.2289 29.6131 59.9881 29.037L59.1459 30.851ZM62.9673 32.5618C64.5579 31.7461 66.23 31.1343 67.9855 30.726L67.5325 28.778C65.6186 29.2231 63.7921 29.8912 62.0547 30.7822L62.9673 32.5618ZM68.0015 30.7221C69.8219 30.2671 71.5702 30.0006 73.2477 29.9188L73.1503 27.9212C71.3292 28.01 69.4508 28.2983 67.5165 28.7819L68.0015 30.7221ZM73.2477 29.9188C74.9302 29.8367 76.3966 29.9411 77.6573 30.2169L78.0847 28.2631C76.6147 27.9415 74.9665 27.8326 73.1503 27.9212L73.2477 29.9188ZM77.3854 30.1142C78.4519 30.7067 79.4448 31.46 80.3639 32.3791L81.7781 30.9649C80.7346 29.9213 79.5941 29.0533 78.3566 28.3658L77.3854 30.1142ZM80.3791 32.394C81.3734 33.3468 82.2365 34.2931 82.9715 35.2323L84.5465 33.9997C83.7455 32.9762 82.8167 31.9598 81.7629 30.95L80.3791 32.394ZM82.9715 35.2323C83.7197 36.1884 84.2571 36.9902 84.6032 37.6439L86.3708 36.7081C85.9489 35.9112 85.3343 35.0063 84.5465 33.9997L82.9715 35.2323ZM84.4884 37.1227L83.9764 46.7227L85.9736 46.8293L86.4856 37.2293L84.4884 37.1227ZM84.2679 46.0689L79.2759 51.0609L80.6901 52.4751L85.6821 47.4831L84.2679 46.0689ZM77.4434 35.3668C75.3527 34.9123 72.94 34.8297 70.2227 35.0926L70.4153 37.0833C72.9887 36.8343 75.184 36.9223 77.0186 37.3212L77.4434 35.3668ZM70.2386 35.0912C67.4633 35.3151 64.8777 36.0554 62.4919 37.3158L63.4261 39.0842C65.563 37.9553 67.8841 37.2876 70.3994 37.0848L70.2386 35.0912ZM61.9594 38.1701L61.6395 48.8581L63.6386 48.9179L63.9586 38.2299L61.9594 38.1701ZM62.795 49.8758L77.387 47.5718L77.075 45.5962L62.483 47.9002L62.795 49.8758ZM78.223 46.7106C78.4835 44.6696 78.615 42.7496 78.615 40.952H76.615C76.615 42.6531 76.4905 44.4877 76.2391 46.4574L78.223 46.7106ZM78.6147 40.9764C78.6588 39.1672 78.5276 37.5459 78.2064 36.1237L76.2556 36.5643C76.5318 37.7874 76.6565 39.2381 76.6153 40.9276L78.6147 40.9764ZM62.5387 69.6598L77.8347 68.2518L77.6513 66.2602L62.3553 67.6682L62.5387 69.6598ZM78.7148 67.492C79.46 64.4233 79.6377 61.7453 79.17 59.5L77.212 59.908C77.5976 61.7587 77.4767 64.1154 76.7712 67.02L78.7148 67.492ZM79.1745 59.5233C78.7491 57.2069 77.5722 55.0739 75.7147 53.1259L74.2673 54.5061C75.9085 56.2274 76.8649 58.0197 77.2075 59.8847L79.1745 59.5233ZM74.9198 52.8185L62.3758 53.7145L62.5182 55.7095L75.0622 54.8135L74.9198 52.8185ZM61.447 54.712V68.664H63.447V54.712H61.447Z" fill="white"/>
</svg>
